<?xml version="1.0" encoding="UTF-8" standalone="no"?>
<!-- Created with Inkscape (http://www.inkscape.org/) -->

<svg
   width="512mm"
   height="512mm"
   viewBox="0 0 512 512"
   version="1.1"
   id="svg1"
   inkscape:version="1.4 (86a8ad7, 2024-10-11)"
   sodipodi:docname="pwa-512x512.svg"
   xmlns:inkscape="http://www.inkscape.org/namespaces/inkscape"
   xmlns:sodipodi="http://sodipodi.sourceforge.net/DTD/sodipodi-0.dtd"
   xmlns="http://www.w3.org/2000/svg"
   xmlns:svg="http://www.w3.org/2000/svg">
  <sodipodi:namedview
     id="namedview1"
     pagecolor="#ffffff"
     bordercolor="#111111"
     borderopacity="1"
     inkscape:showpageshadow="0"
     inkscape:pageopacity="0"
     inkscape:pagecheckerboard="1"
     inkscape:deskcolor="#d1d1d1"
     inkscape:document-units="mm"
     inkscape:zoom="0.25417602"
     inkscape:cx="737.67777"
     inkscape:cy="1119.3031"
     inkscape:window-width="1920"
     inkscape:window-height="1009"
     inkscape:window-x="-8"
     inkscape:window-y="-8"
     inkscape:window-maximized="1"
     inkscape:current-layer="layer1" />
  <defs
     id="defs1" />
  <g
     inkscape:label="Слой 1"
     inkscape:groupmode="layer"
     id="layer1">
    <path
       style="display:inline;opacity:0.98;mix-blend-mode:normal;fill:#000000;stroke-width:5.01966"
       id="path5"
       d="m 42.617613,35.510674 c -0.19813,-0.04893 -1.510055,-0.369274 -1.617969,-0.412819 -0.29408,-0.118647 -0.556381,-0.331478 -0.84484,-0.468596 -0.877131,-0.416856 -1.776179,-0.620146 -2.702786,-0.794693 -0.766059,-0.07829 -1.091027,-0.230444 -1.844497,0.255887 -2.059549,1.32945 -3.592534,3.96621 -5.05484,6.055727 -1.98836,2.940634 -3.828718,6.030383 -5.933157,8.858033 -0.884793,1.188799 -1.830211,2.310922 -2.742686,3.46935 -1.765899,2.381288 -4.043903,3.958297 -6.216935,5.712518 -0.98626,0.593608 -0.500897,0.246226 -1.449054,1.056452 0,0 42.532096,32.249689 42.532096,32.249689 v 0 c 0.772288,-0.717879 0.345091,-0.309336 1.274063,-1.236672 2.207123,-2.200909 4.220596,-4.672789 6.02034,-7.354381 2.680407,-4.054401 5.201747,-8.338393 8.421042,-11.812878 0.660606,-0.569386 2.251087,-2.407808 3.32448,-1.871157 0.160021,0.07955 1.06208,1.542429 1.56408,1.302259 1.65367,0.837748 3.376532,1.454094 4.938865,2.519254 z" />
    <path
       style="display:inline;opacity:0.98;mix-blend-mode:normal;fill:#000000;stroke-width:5.01966"
       id="path6"
       d="m 128.66155,98.11705 c 0.61186,-4.457886 1.67999,-8.810875 2.81238,-13.113582 1.28774,-4.443797 2.73823,-8.837912 4.66234,-12.944873 1.64367,-3.046096 3.55072,-6.040622 6.00472,-8.230657 0.6224,-0.555438 1.30641,-1.004099 1.95958,-1.506199 5.04712,-3.621916 10.62222,-5.851411 16.33145,-7.397325 6.53573,-1.411047 13.20133,-1.691791 19.82791,-1.760764 10.44174,-0.103969 20.79745,1.481747 31.07696,3.510019 11.60585,2.525685 23.11605,5.640841 34.54881,9.108257 10.9112,3.273213 21.85316,6.420573 32.8325,9.350739 11.57879,3.426268 23.02483,7.458323 34.36141,11.887149 10.23284,4.025781 20.64215,7.350098 31.14382,10.197147 11.4104,2.836909 22.82221,5.677499 34.27682,8.249099 11.66687,2.67151 23.44248,4.56336 35.2591,5.96437 1.56216,0.0589 3.12411,0.22821 4.68636,0.17542 2.92036,-0.0991 6.32199,-0.74616 9.18392,-1.39296 2.21469,-0.50066 6.17844,-1.55688 8.36798,-2.39242 1.25306,-0.47817 2.46168,-1.10953 3.69256,-1.66424 6.95717,-3.95206 12.52372,-10.440477 17.94337,-16.838985 2.88804,-3.403432 5.78032,-6.904277 9.24278,-9.487135 1.33405,-0.995168 2.37081,-1.505035 3.77916,-2.27929 2.97444,-1.702821 6.20785,-2.506469 9.31737,-3.76615 2.55558,-1.111493 4.87932,-2.884821 7.25176,-4.466267 1.4041,-0.883372 2.88948,-1.037981 4.43604,-0.879456 0.83381,0.04405 1.66914,0.05751 2.50376,0.0856 0,0 -40.67998,-35.238101 -40.67998,-35.238101 v 0 c -0.98709,0.0758 -1.97783,0.136748 -2.95275,0.353251 -1.88322,0.646321 -3.58445,1.770487 -5.2259,3.040603 -2.07337,1.435336 -4.03884,3.084488 -6.40497,3.78381 -3.2591,1.325623 -6.53955,2.696844 -9.37857,5.095198 -0.61512,0.506514 -1.25122,0.979515 -1.84653,1.519554 -3.9711,3.602528 -7.1744,8.225253 -10.6637,12.438912 -4.91546,5.963879 -10.11951,11.717888 -16.72951,14.853629 -3.03238,1.312106 -3.65757,1.695681 -6.86981,2.604787 -5.57453,1.577668 -11.26241,1.856111 -16.96697,1.439831 -11.36969,-0.866983 -22.67872,-2.609156 -33.83011,-5.444328 -11.68387,-2.846327 -23.33236,-5.915857 -34.9497,-9.127802 -10.3178,-3.042525 -20.57889,-6.358425 -30.68913,-10.287527 -11.33475,-4.133756 -22.76157,-7.894515 -34.26293,-11.308038 -11.02943,-3.352791 -22.14523,-6.28644 -33.1659,-9.686176 -11.39068,-3.190394 -22.85494,-6.011682 -34.3783,-8.428187 -10.9339,-2.124573 -21.94291,-3.817452 -33.0316,-4.122631 -7.16155,-0.06359 -14.42602,-0.06849 -21.38133,2.258081 -6.04807,2.204308 -12.00989,4.795985 -17.49755,8.614132 -1.60431,1.221334 -3.18839,2.317539 -4.62463,3.824924 -2.113583,2.218279 -3.595228,5.197453 -5.07883,8.003724 -0.630873,1.343454 -1.508839,3.152669 -2.053318,4.553441 -1.192422,3.06777 -1.989187,6.332849 -2.870783,9.537454 -1.148291,4.077778 -2.185209,8.290054 -4.111402,11.957998 z" />
    <path
       style="display:inline;opacity:0.98;mix-blend-mode:normal;fill:#000000;stroke-width:5.01966"
       id="path5-8"
       d="m 42.960546,171.25405 c -0.198129,-0.0491 -1.510044,-0.36929 -1.617969,-0.41281 -0.29408,-0.1186 -0.556382,-0.33148 -0.844841,-0.46864 -0.877131,-0.41701 -1.776178,-0.62016 -2.702785,-0.79468 -0.766058,-0.0785 -1.091027,-0.23044 -1.844497,0.25586 -2.059549,1.32945 -3.592534,3.96621 -5.05483,6.05574 -1.98837,2.94063 -3.828728,6.03037 -5.933167,8.85802 -0.884793,1.18881 -1.830211,2.31093 -2.742686,3.46935 -1.765899,2.38129 -4.043903,3.95829 -6.216926,5.71252 -0.98626,0.59357 -0.500895,0.24623 -1.449052,1.05644 0,0 42.532084,32.2497 42.532084,32.2497 v 0 c 0.772289,-0.71788 0.345093,-0.30935 1.274065,-1.23665 2.207123,-2.20091 4.220596,-4.67281 6.02034,-7.3544 2.680406,-4.0544 5.201747,-8.33839 8.421042,-11.81286 0.660607,-0.56942 2.251086,-2.40782 3.324479,-1.87117 0.160023,0.0793 1.06208,1.54243 1.56409,1.30225 1.65366,0.83775 3.376523,1.45411 4.938852,2.51927 z" />
    <path
       style="display:inline;opacity:0.98;mix-blend-mode:normal;fill:#000000;stroke-width:5.01966"
       id="path6-8"
       d="m 129.00448,233.86043 c 0.61186,-4.4579 1.68,-8.81088 2.8124,-13.11359 1.28772,-4.44381 2.73822,-8.8379 4.66233,-12.94487 1.64366,-3.04611 3.55072,-6.04062 6.00472,-8.23067 0.6224,-0.5554 1.30638,-1.00411 1.95958,-1.50618 5.04712,-3.62192 10.62219,-5.85142 16.33144,-7.39733 6.53572,-1.41104 13.20134,-1.6918 19.82792,-1.76075 10.44174,-0.104 20.79744,1.48172 31.07695,3.51 11.60585,2.5257 23.11605,5.64085 34.54882,9.10826 10.91119,3.27321 21.85314,6.42058 32.83248,9.35074 11.5788,3.42627 23.02483,7.45829 34.36142,11.88716 10.23284,4.02579 20.64215,7.35009 31.14381,10.19715 11.4104,2.8369 22.8222,5.6775 34.27684,8.24909 11.66684,2.67151 23.44245,4.56335 35.25907,5.96438 1.56215,0.0588 3.12412,0.22821 4.68638,0.17531 2.92036,-0.0991 6.32199,-0.74616 9.18391,-1.39296 2.2147,-0.50066 6.17843,-1.55687 8.36798,-2.39242 1.25307,-0.47817 2.46167,-1.10953 3.69255,-1.66423 6.95718,-3.95208 12.52363,-10.44048 17.94339,-16.83901 2.88804,-3.40342 5.78033,-6.90425 9.24274,-9.48711 1.33408,-0.99519 2.37085,-1.50504 3.77919,-2.27929 2.97442,-1.70282 6.20787,-2.50648 9.31739,-3.76617 2.55556,-1.1115 4.87927,-2.88482 7.25174,-4.46626 1.40406,-0.88341 2.88949,-1.03798 4.43606,-0.87949 0.83375,0.0438 1.66909,0.0572 2.50376,0.0856 0,0 -40.67999,-35.2381 -40.67999,-35.2381 v 0 c -0.98709,0.0758 -1.97785,0.1367 -2.95276,0.35324 -1.88332,0.64629 -3.58444,1.7705 -5.22589,3.04059 -2.07339,1.43537 -4.03884,3.08452 -6.40498,3.78384 -3.25909,1.32562 -6.53954,2.69683 -9.37857,5.0952 -0.61512,0.50653 -1.25121,0.97951 -1.84653,1.51955 -3.97109,3.60253 -7.17439,8.22524 -10.66371,12.43892 -4.91546,5.96387 -10.11949,11.71787 -16.72949,14.85362 -3.03238,1.31211 -3.65758,1.69567 -6.86982,2.60477 -5.57452,1.57768 -11.2624,1.85612 -16.96698,1.43984 -11.36967,-0.867 -22.67872,-2.60914 -33.8301,-5.44432 -11.68388,-2.84632 -23.33238,-5.91586 -34.94971,-9.12781 -10.3178,-3.04253 -20.57887,-6.35841 -30.68912,-10.28751 -11.33475,-4.13376 -22.76155,-7.89454 -34.26291,-11.30804 -11.02943,-3.3528 -22.14524,-6.28646 -33.16591,-9.6862 -11.39067,-3.19038 -22.85494,-6.01167 -34.37829,-8.42818 -10.9339,-2.12457 -21.94292,-3.81745 -33.0316,-4.12262 -7.16157,-0.0634 -14.42602,-0.0686 -21.38133,2.25806 -6.04807,2.20431 -12.00989,4.79599 -17.49756,8.61413 -1.6043,1.22134 -3.18839,2.31756 -4.62463,3.82493 -2.113579,2.21828 -3.595229,5.19747 -5.078827,8.00374 -0.630873,1.34344 -1.508843,3.15266 -2.053317,4.55342 -1.192422,3.06779 -1.989187,6.33287 -2.870775,9.53746 -1.148299,4.07778 -2.185222,8.29006 -4.111411,11.95801 z" />
    <path
       style="display:inline;opacity:0.98;mix-blend-mode:normal;fill:#000000;stroke-width:5.01966"
       id="path5-5"
       d="m 41.412786,300.82643 c -0.198129,-0.049 -1.510055,-0.36927 -1.617969,-0.41289 -0.294081,-0.11866 -0.556382,-0.33148 -0.844842,-0.46863 -0.87713,-0.41683 -1.776187,-0.62017 -2.702784,-0.7947 -0.766058,-0.0786 -1.091028,-0.23043 -1.844497,0.25604 -2.059549,1.32948 -3.592535,3.96622 -5.054842,6.05574 -1.988369,2.94064 -3.828717,6.03039 -5.933165,8.85806 -0.884794,1.18879 -1.830202,2.31092 -2.742677,3.46935 -1.765899,2.38127 -4.043912,3.95827 -6.216935,5.71249 -0.986261,0.59358 -0.500896,0.24631 -1.449053,1.05646 0,0 42.532093,32.24968 42.532093,32.24968 v 0 c 0.772294,-0.71792 0.345092,-0.30939 1.274068,-1.23666 2.207109,-2.2009 4.220597,-4.67278 6.020336,-7.35442 2.680405,-4.05438 5.201738,-8.3384 8.421041,-11.81285 0.660608,-0.56941 2.251092,-2.4078 3.32448,-1.87116 0.160023,0.0793 1.06208,1.54242 1.56408,1.30225 1.653674,0.83776 3.376534,1.45412 4.938866,2.51923 z" />
    <path
       style="display:inline;opacity:0.98;mix-blend-mode:normal;fill:#000000;stroke-width:5.01966"
       id="path6-1"
       d="m 127.45671,363.4328 c 0.61187,-4.45789 1.67999,-8.81088 2.81239,-13.11356 1.28774,-4.44381 2.73823,-8.83793 4.66234,-12.94489 1.64368,-3.04611 3.55072,-6.04061 6.00474,-8.23067 0.62228,-0.5554 1.30637,-1.00408 1.95956,-1.50617 5.04712,-3.62194 10.6222,-5.85142 16.33143,-7.39733 6.53574,-1.41103 13.20135,-1.69178 19.82793,-1.76075 10.44175,-0.10404 20.79744,1.48174 31.07696,3.51 11.60585,2.52571 23.11606,5.64084 34.54883,9.10825 10.91118,3.27323 21.85314,6.42058 32.83247,9.35074 11.57878,3.42626 23.02482,7.45831 34.36141,11.88717 10.23283,4.02578 20.64214,7.35009 31.14381,10.19714 11.41042,2.83691 22.8222,5.6775 34.27683,8.24911 11.66686,2.67148 23.44249,4.56335 35.25909,5.96435 1.56207,0.0588 3.12414,0.22814 4.68639,0.17552 2.92035,-0.0991 6.32199,-0.74616 9.18391,-1.39297 2.2147,-0.50066 6.17842,-1.55688 8.36799,-2.39239 1.25306,-0.47819 2.46166,-1.10954 3.69245,-1.66424 6.95725,-3.95207 12.52373,-10.4405 17.94346,-16.83901 2.88807,-3.40341 5.78033,-6.90427 9.24277,-9.4871 1.3341,-0.99518 2.37081,-1.50505 3.77921,-2.2793 2.9744,-1.70282 6.20786,-2.5065 9.31733,-3.76615 2.55557,-1.1115 4.8793,-2.88484 7.25179,-4.46625 1.40397,-0.88343 2.88949,-1.03811 4.43601,-0.87949 0.8338,0.0437 1.66915,0.0571 2.50376,0.0857 0,0 -40.67998,-35.23808 -40.67998,-35.23808 v 0 c -0.98707,0.0758 -1.97783,0.13662 -2.95284,0.35323 -1.88322,0.64628 -3.58434,1.7705 -5.22579,3.04062 -2.07348,1.43533 -4.03884,3.08447 -6.40498,3.78383 -3.25909,1.32561 -6.53954,2.69683 -9.37857,5.09518 -0.61513,0.50654 -1.25121,0.9795 -1.84653,1.51954 -3.9712,3.60253 -7.17439,8.22525 -10.66372,12.43893 -4.91546,5.96386 -10.11947,11.71786 -16.7295,14.85361 -3.03238,1.31208 -3.65756,1.69567 -6.86982,2.60479 -5.57453,1.57765 -11.2624,1.8561 -16.96697,1.43982 -11.36969,-0.86703 -22.67872,-2.60915 -33.83012,-5.44431 -11.68386,-2.84632 -23.33235,-5.91586 -34.94969,-9.12783 -10.3178,-3.04252 -20.57887,-6.35841 -30.68911,-10.28754 -11.33476,-4.13371 -22.76156,-7.89448 -34.26291,-11.30802 -11.02945,-3.35276 -22.14525,-6.28645 -33.16594,-9.68618 -11.39066,-3.19036 -22.85491,-6.01168 -34.37827,-8.42816 -10.93391,-2.12458 -21.94293,-3.81746 -33.03161,-4.12264 -7.16156,-0.0634 -14.42601,-0.0687 -21.38133,2.25808 -6.04806,2.20431 -12.00989,4.796 -17.49755,8.61413 -1.60431,1.22132 -3.188383,2.31753 -4.624625,3.82491 -2.113582,2.2183 -3.595233,5.19747 -5.078834,8.00373 -0.630873,1.34347 -1.50884,3.15268 -2.053318,4.55344 -1.192421,3.06781 -1.989183,6.33287 -2.87078,9.53746 -1.148304,4.07776 -2.185213,8.29009 -4.111406,11.95801 z" />
    <path
       style="display:inline;opacity:0.98;mix-blend-mode:normal;fill:#000000;stroke-width:5.01966"
       id="path5-52"
       d="m 47.794807,416.37083 c -0.19813,-0.049 -1.510056,-0.36929 -1.617981,-0.41282 -0.294079,-0.11867 -0.556379,-0.33148 -0.84484,-0.46864 -0.877129,-0.41683 -1.776179,-0.62015 -2.702774,-0.79468 -0.766059,-0.0783 -1.091028,-0.23044 -1.844509,0.25604 -2.059548,1.32947 -3.592523,3.96621 -5.054829,6.05575 -1.988369,2.94061 -3.828718,6.03039 -5.933157,8.85803 -0.884793,1.18881 -1.830211,2.31092 -2.742685,3.46936 -1.765899,2.38126 -4.043914,3.9583 -6.216936,5.7125 -0.986261,0.59358 -0.500896,0.24622 -1.449053,1.05644 0,0 42.532082,32.24969 42.532082,32.24969 v 0 c 0.772293,-0.7179 0.345091,-0.30937 1.274077,-1.23666 2.207114,-2.20091 4.220598,-4.6728 6.02034,-7.3544 2.680407,-4.05441 5.201738,-8.33839 8.421043,-11.81285 0.660607,-0.56943 2.251088,-2.40784 3.324479,-1.87117 0.160023,0.0793 1.06208,1.54242 1.564076,1.30226 1.653674,0.83777 3.376532,1.45409 4.938865,2.51923 z" />
    <path
       style="display:inline;opacity:0.98;mix-blend-mode:normal;fill:#000000;stroke-width:5.01966"
       id="path6-7"
       d="m 133.83873,478.97724 c 0.61188,-4.45792 1.68,-8.81091 2.81239,-13.11361 1.28775,-4.44379 2.73824,-8.83793 4.66235,-12.94489 1.64366,-3.0461 3.55072,-6.04062 6.00472,-8.23064 0.62229,-0.55533 1.30638,-1.0041 1.95958,-1.50622 5.0471,-3.62191 10.62219,-5.8514 16.33143,-7.39732 6.53572,-1.41104 13.20134,-1.69177 19.82791,-1.76075 10.44176,-0.10406 20.79746,1.48172 31.07696,3.51002 11.60587,2.5257 23.11606,5.64085 34.54884,9.10824 10.91119,3.27324 21.85313,6.4206 32.83248,9.35074 11.5788,3.42628 23.02481,7.45833 34.36139,11.88717 10.23282,4.02578 20.64215,7.3501 31.14382,10.19713 11.41039,2.83693 22.8222,5.67752 34.27681,8.2491 11.66688,2.67153 23.44245,4.56337 35.25908,5.96439 1.56216,0.0588 3.12411,0.22811 4.68638,0.17552 2.92035,-0.0991 6.322,-0.74616 9.18391,-1.39296 2.21468,-0.50066 6.17843,-1.5569 8.36799,-2.39241 1.25306,-0.47817 2.46166,-1.10953 3.69255,-1.66423 6.95716,-3.95207 12.5237,-10.4405 17.94336,-16.83899 2.88808,-3.40342 5.78043,-6.90427 9.24278,-9.48714 1.3341,-0.99516 2.3709,-1.50505 3.77921,-2.2793 2.9744,-1.70282 6.20786,-2.50648 9.31732,-3.76613 2.55558,-1.11149 4.87932,-2.88485 7.25189,-4.46629 1.40396,-0.88333 2.8894,-1.03799 4.43591,-0.87949 0.83381,0.0437 1.66914,0.0571 2.50377,0.0857 0,0 -40.68,-35.23812 -40.68,-35.23812 v 0 c -0.98707,0.0758 -1.97784,0.13662 -2.95273,0.35324 -1.88321,0.6463 -3.58435,1.77051 -5.2259,3.0406 -2.07337,1.43534 -4.03874,3.08452 -6.40497,3.78383 -3.25909,1.32564 -6.53954,2.69687 -9.37857,5.0952 -0.61513,0.50654 -1.25121,0.97952 -1.84652,1.51953 -3.97111,3.60253 -7.17441,8.22527 -10.66372,12.43895 -4.91545,5.96384 -10.11949,11.71787 -16.72943,14.8536 -3.03246,1.3121 -3.65763,1.69568 -6.86986,2.60478 -5.57455,1.57765 -11.26241,1.85611 -16.96698,1.43984 -11.36968,-0.86696 -22.67872,-2.60912 -33.83013,-5.44427 -11.68385,-2.84636 -23.33234,-5.91586 -34.94965,-9.12783 -10.3178,-3.04251 -20.57888,-6.35841 -30.68912,-10.28753 -11.33477,-4.13376 -22.76157,-7.8945 -34.26292,-11.30803 -11.02944,-3.35277 -22.14526,-6.28645 -33.16594,-9.68618 -11.39064,-3.19037 -22.85491,-6.01168 -34.37827,-8.42816 -10.93391,-2.12458 -21.94292,-3.81749 -33.03162,-4.12265 -7.16155,-0.0634 -14.426,-0.0687 -21.38132,2.25808 -6.04806,2.20431 -12.00989,4.79598 -17.49756,8.61411 -1.6043,1.22134 -3.18837,2.31756 -4.62461,3.82493 -2.11359,2.21828 -3.59524,5.19746 -5.078835,8.00374 -0.630874,1.34344 -1.508844,3.15267 -2.053318,4.55344 -1.192423,3.06779 -1.989188,6.33285 -2.870785,9.53744 -1.14829,4.07779 -2.185214,8.29005 -4.111401,11.95802 z" />
  </g>
</svg>
