<?xml version="1.0" encoding="UTF-8" standalone="no"?>
<!-- Created with Inkscape (http://www.inkscape.org/) -->

<svg
   width="192"
   height="192"
   viewBox="0 0 192 192"
   version="1.1"
   id="svg1"
   inkscape:version="1.4 (86a8ad7, 2024-10-11)"
   sodipodi:docname="pwa-192x192.svg"
   xmlns:inkscape="http://www.inkscape.org/namespaces/inkscape"
   xmlns:sodipodi="http://sodipodi.sourceforge.net/DTD/sodipodi-0.dtd"
   xmlns="http://www.w3.org/2000/svg"
   xmlns:svg="http://www.w3.org/2000/svg">
  <sodipodi:namedview
     id="namedview1"
     pagecolor="#ffffff"
     bordercolor="#111111"
     borderopacity="1"
     inkscape:showpageshadow="0"
     inkscape:pageopacity="0"
     inkscape:pagecheckerboard="true"
     inkscape:deskcolor="#d1d1d1"
     inkscape:document-units="px"
     inkscape:zoom="3.1701954"
     inkscape:cx="119.70871"
     inkscape:cy="118.13152"
     inkscape:window-width="1920"
     inkscape:window-height="1009"
     inkscape:window-x="-8"
     inkscape:window-y="-8"
     inkscape:window-maximized="1"
     inkscape:current-layer="layer1" />
  <defs
     id="defs1" />
  <g
     inkscape:label="Слой 1"
     inkscape:groupmode="layer"
     id="layer1"
     style="display:inline;mix-blend-mode:normal">
    <path
       style="opacity:0.98;fill:#000000;stroke-width:1.697"
       id="path5"
       d="m 13.666554,22.00303 c -0.0733,-0.01512 -0.558542,-0.114117 -0.59846,-0.127577 -0.108787,-0.03668 -0.205794,-0.102435 -0.312495,-0.144802 -0.324444,-0.128822 -0.656977,-0.191631 -0.99971,-0.245537 -0.283345,-0.02408 -0.403551,-0.07121 -0.682248,0.07907 -0.76179,0.410794 -1.3288123,1.225539 -1.8696923,1.871188 -0.735461,0.908642 -1.416175,1.863356 -2.1945704,2.737087 -0.3272602,0.367342 -0.6769606,0.714062 -1.0144696,1.07201 -0.6531739,0.735804 -1.4957684,1.223091 -2.2995313,1.765135 -0.3648177,0.183409 -0.1852606,0.07608 -0.5359779,0.326435 0,0 15.7318545,9.964982 15.7318545,9.964982 v 0 c 0.285662,-0.221811 0.127642,-0.0956 0.471255,-0.382124 0.816372,-0.680069 1.561123,-1.443869 2.226815,-2.272466 0.991433,-1.252788 1.92403,-2.576517 3.11479,-3.650114 0.244344,-0.175938 0.832639,-0.744001 1.229666,-0.578178 0.05918,0.02472 0.392844,0.476603 0.578527,0.40239 0.611662,0.258854 1.248916,0.449308 1.826796,0.778436 z" />
    <path
       style="opacity:0.98;fill:#000000;stroke-width:1.697"
       id="path6"
       d="m 45.492655,41.348067 c 0.226323,-1.377465 0.621398,-2.722515 1.040252,-4.052029 0.476309,-1.373111 1.01282,-2.730867 1.724515,-3.999896 0.607962,-0.941229 1.313348,-1.866521 2.221043,-2.543231 0.230191,-0.171614 0.483206,-0.31027 0.724809,-0.465405 1.86684,-1.119152 3.928959,-1.808054 6.040705,-2.285734 2.417449,-0.436006 4.882935,-0.522753 7.333992,-0.544066 3.86221,-0.03212 7.692599,0.45785 11.494804,1.084577 4.292798,0.780424 8.550213,1.742988 12.77899,2.8144 4.035852,1.011405 8.083084,1.983926 12.144145,2.889331 4.28279,1.058698 8.51647,2.30458 12.70967,3.673065 3.78494,1.243945 7.63516,2.271141 11.51954,3.150864 4.2205,0.87659 8.44152,1.75432 12.67838,2.548927 4.31536,0.825485 8.67095,1.410053 13.0417,1.84296 0.5778,0.01807 1.15555,0.07053 1.7334,0.0542 1.0802,-0.03053 2.3384,-0.230536 3.39696,-0.430417 0.81918,-0.154679 2.28529,-0.481068 3.09518,-0.739243 0.46349,-0.147749 0.91053,-0.342828 1.36579,-0.514242 2.57334,-1.221168 4.6323,-3.226052 6.63694,-5.203157 1.06824,-1.051642 2.13806,-2.133384 3.41875,-2.931473 0.49344,-0.307491 0.87693,-0.465047 1.39784,-0.704288 1.10018,-0.526162 2.29617,-0.774485 3.44633,-1.163721 0.94525,-0.34346 1.80475,-0.891395 2.68231,-1.380053 0.51931,-0.272952 1.06877,-0.320741 1.64079,-0.271746 0.30855,0.01368 0.61738,0.01769 0.9261,0.02632 0,0 -15.0468,-10.888384 -15.0468,-10.888384 v 0 c -0.36516,0.02345 -0.73157,0.04225 -1.09218,0.109143 -0.69657,0.199715 -1.32579,0.547071 -1.93294,0.93953 -0.76693,0.443515 -1.49389,0.953093 -2.36909,1.169179 -1.20547,0.40961 -2.41887,0.833309 -3.46896,1.574389 -0.22767,0.156512 -0.46281,0.302666 -0.683,0.469535 -1.46886,1.113162 -2.65369,2.541556 -3.94432,3.843557 -1.81815,1.842804 -3.74301,3.620763 -6.18794,4.589692 -1.12162,0.405434 -1.35287,0.523954 -2.54102,0.804863 -2.06192,0.487491 -4.16576,0.573531 -6.27578,0.4449 -4.20544,-0.267883 -8.38845,-0.806212 -12.51315,-1.682266 -4.32165,-0.879502 -8.63022,-1.827971 -12.92726,-2.820444 -3.81637,-0.940123 -7.61176,-1.96472 -11.35136,-3.178789 C 96.159266,26.301606 91.932701,25.13955 87.678554,24.08479 83.598965,23.048797 79.487426,22.142313 75.411076,21.091812 71.197876,20.106 66.957449,19.234235 62.695166,18.487549 58.650913,17.831068 54.578877,17.307976 50.47737,17.213677 c -2.648929,-0.01956 -5.335921,-0.02116 -7.908567,0.697734 -2.237069,0.681119 -4.442242,1.481935 -6.472032,2.661721 -0.593402,0.377388 -1.179325,0.716109 -1.710563,1.181881 -0.781778,0.685436 -1.329813,1.605988 -1.878569,2.473109 -0.233334,0.415119 -0.558095,0.974156 -0.759485,1.406988 -0.441056,0.947927 -0.735764,1.956817 -1.06185,2.947022 -0.424735,1.260011 -0.808272,2.561584 -1.520735,3.694958 z" />
    <path
       style="opacity:0.98;fill:#000000;stroke-width:1.697"
       id="path5-8"
       d="m 13.793399,63.947005 c -0.0733,-0.01512 -0.558542,-0.114117 -0.59846,-0.127577 -0.108787,-0.03668 -0.205794,-0.102435 -0.312495,-0.144802 -0.324444,-0.128822 -0.656977,-0.191631 -0.99971,-0.245537 -0.283345,-0.02408 -0.403551,-0.07121 -0.682248,0.07907 -0.76179,0.410794 -1.3288117,1.225539 -1.8696917,1.871188 -0.735461,0.908642 -1.416175,1.863356 -2.19457,2.737087 -0.327261,0.367342 -0.676961,0.714062 -1.01447,1.07201 -0.653174,0.735804 -1.495768,1.223091 -2.299531,1.765135 -0.364818,0.183409 -0.185261,0.07608 -0.535978,0.326435 0,0 15.7318537,9.964982 15.7318537,9.964982 v 0 c 0.285662,-0.221811 0.127642,-0.0956 0.471255,-0.382124 0.816372,-0.680069 1.561123,-1.443869 2.226815,-2.272466 0.991433,-1.252788 1.92403,-2.576517 3.11479,-3.650114 0.244344,-0.175938 0.832639,-0.744001 1.229666,-0.578178 0.05918,0.02472 0.392844,0.476603 0.578527,0.40239 0.611662,0.258854 1.248916,0.449308 1.826796,0.778436 z" />
    <path
       style="opacity:0.98;fill:#000000;stroke-width:1.697"
       id="path6-8"
       d="m 45.6195,83.292042 c 0.226323,-1.377465 0.621398,-2.722515 1.040252,-4.052029 0.476309,-1.373111 1.01282,-2.730867 1.724515,-3.999896 0.607962,-0.941229 1.313348,-1.866521 2.221043,-2.543231 0.230191,-0.171614 0.483206,-0.31027 0.724809,-0.465405 1.86684,-1.119152 3.928959,-1.808054 6.040705,-2.285734 2.417449,-0.436006 4.882935,-0.522753 7.333992,-0.544066 3.86221,-0.03212 7.692599,0.45785 11.494804,1.084577 4.292798,0.780424 8.550213,1.742988 12.77899,2.8144 4.035852,1.011405 8.083084,1.983926 12.14414,2.889331 4.28279,1.058698 8.51647,2.30458 12.70967,3.673065 3.78494,1.243945 7.63516,2.271141 11.51954,3.150864 4.2205,0.87659 8.44152,1.75432 12.67838,2.548927 4.31536,0.825485 8.67095,1.410053 13.0417,1.84296 0.5778,0.01807 1.15555,0.07053 1.7334,0.0542 1.0802,-0.03053 2.3384,-0.230536 3.39696,-0.430417 0.81918,-0.154679 2.28529,-0.481068 3.09518,-0.739243 0.46349,-0.147749 0.91053,-0.342828 1.36579,-0.514242 2.57334,-1.221168 4.6323,-3.226052 6.63694,-5.203157 1.06824,-1.051642 2.13806,-2.133384 3.41875,-2.931473 0.49344,-0.307491 0.87693,-0.465047 1.39784,-0.704288 1.10018,-0.526162 2.29617,-0.774485 3.44633,-1.163721 0.94525,-0.34346 1.80475,-0.891395 2.68231,-1.380053 0.51931,-0.272952 1.06877,-0.320741 1.64079,-0.271746 0.30855,0.01368 0.61738,0.01769 0.9261,0.02632 0,0 -15.0468,-10.888384 -15.0468,-10.888384 v 0 c -0.36516,0.02345 -0.73157,0.04225 -1.09218,0.109143 -0.69657,0.199715 -1.32579,0.547071 -1.93294,0.93953 -0.76693,0.443515 -1.49389,0.953093 -2.36909,1.169179 -1.20547,0.40961 -2.41887,0.833309 -3.46896,1.574389 -0.22767,0.156512 -0.46281,0.302666 -0.683,0.469535 -1.46886,1.113162 -2.65369,2.541556 -3.94432,3.843557 -1.81815,1.842804 -3.74301,3.620763 -6.18794,4.589692 -1.12162,0.405434 -1.35287,0.523954 -2.54102,0.804863 -2.06192,0.487491 -4.16576,0.573531 -6.27578,0.4449 -4.20544,-0.267883 -8.38845,-0.806212 -12.51315,-1.682266 -4.32165,-0.879502 -8.63022,-1.827971 -12.92726,-2.820444 -3.81637,-0.940123 -7.61176,-1.96472 -11.35136,-3.178789 -4.192519,-1.277309 -8.419084,-2.439365 -12.673231,-3.494125 -4.079589,-1.035993 -8.191128,-1.942477 -12.267478,-2.992978 -4.2132,-0.985812 -8.453627,-1.857577 -12.71591,-2.604263 -4.044253,-0.656481 -8.116289,-1.179573 -12.217796,-1.273872 -2.648929,-0.01956 -5.335921,-0.02116 -7.908567,0.697734 -2.237069,0.681119 -4.442242,1.481935 -6.472032,2.661721 -0.593402,0.377388 -1.179325,0.716109 -1.710563,1.181881 -0.781778,0.685436 -1.329813,1.605988 -1.878569,2.473109 -0.233334,0.415119 -0.558095,0.974156 -0.759485,1.406988 -0.441056,0.947927 -0.735764,1.956817 -1.06185,2.947022 -0.424735,1.260011 -0.808272,2.561584 -1.520735,3.694958 z" />
    <path
       style="opacity:0.98;fill:#000000;stroke-width:1.697"
       id="path5-5"
       d="m 13.220909,103.98418 c -0.0733,-0.0151 -0.558542,-0.11412 -0.59846,-0.12758 -0.108787,-0.0367 -0.205794,-0.10243 -0.312495,-0.1448 -0.324444,-0.12882 -0.656977,-0.19163 -0.99971,-0.24554 -0.283345,-0.0241 -0.403551,-0.0712 -0.682248,0.0791 -0.7617904,0.4108 -1.3288124,1.22554 -1.8696924,1.87119 -0.735461,0.90864 -1.416175,1.86336 -2.1945704,2.73709 -0.3272602,0.36734 -0.6769606,0.71406 -1.0144696,1.07201 -0.6531739,0.7358 -1.4957684,1.22309 -2.2995313,1.76513 -0.3648177,0.18341 -0.1852606,0.0761 -0.5359777,0.32644 0,0 15.7318544,9.96498 15.7318544,9.96498 v 0 c 0.285662,-0.22181 0.127642,-0.0956 0.471255,-0.38212 0.816372,-0.68007 1.561123,-1.44387 2.226815,-2.27247 0.991433,-1.25279 1.92403,-2.57652 3.11479,-3.65011 0.244344,-0.17594 0.832639,-0.744 1.229666,-0.57818 0.05918,0.0247 0.392844,0.4766 0.578527,0.40239 0.611662,0.25885 1.248916,0.44931 1.826796,0.77843 z" />
    <path
       style="opacity:0.98;fill:#000000;stroke-width:1.697"
       id="path6-1"
       d="m 45.04701,123.32921 c 0.226323,-1.37746 0.621398,-2.72251 1.040252,-4.05202 0.476309,-1.37311 1.01282,-2.73087 1.724515,-3.9999 0.607962,-0.94123 1.313348,-1.86652 2.221043,-2.54323 0.230191,-0.17161 0.483206,-0.31027 0.724809,-0.4654 1.86684,-1.11916 3.928959,-1.80806 6.040705,-2.28574 2.417449,-0.436 4.882935,-0.52275 7.333992,-0.54406 3.86221,-0.0321 7.692599,0.45785 11.494804,1.08457 4.292798,0.78043 8.550213,1.74299 12.77899,2.8144 4.035852,1.01141 8.083084,1.98393 12.14414,2.88933 4.28279,1.0587 8.51647,2.30458 12.70967,3.67307 3.78494,1.24394 7.63516,2.27114 11.51954,3.15086 4.2205,0.87659 8.44152,1.75432 12.67838,2.54893 4.31536,0.82548 8.67095,1.41005 13.0417,1.84296 0.5778,0.0181 1.15555,0.0705 1.7334,0.0542 1.0802,-0.0305 2.3384,-0.23054 3.39696,-0.43042 0.81918,-0.15468 2.28529,-0.48107 3.09518,-0.73924 0.46349,-0.14775 0.91053,-0.34283 1.36579,-0.51424 2.57334,-1.22117 4.6323,-3.22606 6.63694,-5.20316 1.06824,-1.05164 2.13806,-2.13338 3.41875,-2.93147 0.49344,-0.30749 0.87693,-0.46505 1.39784,-0.70429 1.10018,-0.52616 2.29617,-0.77449 3.44633,-1.16372 0.94525,-0.34346 1.80475,-0.8914 2.68231,-1.38005 0.51931,-0.27296 1.06877,-0.32075 1.64079,-0.27175 0.30855,0.0137 0.61738,0.0177 0.9261,0.0263 0,0 -15.0468,-10.88838 -15.0468,-10.88838 v 0 c -0.36516,0.0234 -0.73157,0.0422 -1.09218,0.10914 -0.69657,0.19971 -1.32579,0.54707 -1.93294,0.93953 -0.76693,0.44351 -1.49389,0.95309 -2.36909,1.16918 -1.20547,0.40961 -2.41887,0.83331 -3.46896,1.57439 -0.22767,0.15651 -0.46281,0.30266 -0.683,0.46953 -1.46886,1.11316 -2.65369,2.54156 -3.94432,3.84356 -1.81815,1.8428 -3.74301,3.62076 -6.18794,4.58969 -1.12162,0.40543 -1.35287,0.52395 -2.54102,0.80486 -2.06192,0.48749 -4.16576,0.57353 -6.27578,0.4449 -4.20544,-0.26788 -8.38845,-0.80621 -12.51315,-1.68226 -4.32165,-0.8795 -8.63022,-1.82797 -12.92726,-2.82045 -3.81637,-0.94012 -7.61176,-1.96472 -11.351358,-3.17879 -4.192521,-1.2773 -8.419086,-2.43936 -12.673233,-3.49412 -4.079589,-1.03599 -8.191128,-1.94248 -12.267478,-2.99298 -4.2132,-0.98581 -8.453627,-1.85758 -12.71591,-2.60426 -4.044253,-0.656483 -8.116289,-1.179575 -12.217796,-1.273874 -2.648929,-0.01956 -5.335921,-0.02116 -7.908567,0.697734 -2.237069,0.68112 -4.442242,1.48194 -6.472032,2.66172 -0.593402,0.37739 -1.179325,0.71611 -1.710563,1.18188 -0.781778,0.68544 -1.329813,1.60599 -1.878569,2.47311 -0.233334,0.41512 -0.558095,0.97416 -0.759485,1.40699 -0.441056,0.94793 -0.735764,1.95682 -1.06185,2.94702 -0.424735,1.26001 -0.808272,2.56159 -1.520735,3.69496 z" />
    <path
       style="opacity:0.98;fill:#000000;stroke-width:1.697"
       id="path5-52"
       d="m 15.581503,139.68678 c -0.0733,-0.0151 -0.558542,-0.11412 -0.59846,-0.12758 -0.108787,-0.0367 -0.205794,-0.10243 -0.312495,-0.1448 -0.324444,-0.12882 -0.656977,-0.19163 -0.99971,-0.24554 -0.283345,-0.0241 -0.403551,-0.0712 -0.682248,0.0791 -0.76179,0.4108 -1.328812,1.22554 -1.869692,1.87119 -0.735461,0.90864 -1.4161746,1.86336 -2.1945696,2.73709 -0.327261,0.36734 -0.676961,0.71406 -1.01447,1.07201 -0.653174,0.7358 -1.495768,1.22309 -2.299531,1.76513 -0.364818,0.18341 -0.185261,0.0761 -0.535978,0.32644 0,0 15.7318536,9.96498 15.7318536,9.96498 v 0 c 0.285662,-0.22181 0.127642,-0.0956 0.471255,-0.38212 0.816372,-0.68007 1.561123,-1.44387 2.226815,-2.27247 0.991434,-1.25279 1.924031,-2.57652 3.114791,-3.65011 0.244344,-0.17594 0.832639,-0.74401 1.229666,-0.57818 0.05918,0.0247 0.392844,0.4766 0.578527,0.40239 0.611662,0.25885 1.248916,0.44931 1.826796,0.77843 z" />
    <path
       style="opacity:0.98;fill:#000000;stroke-width:1.697"
       id="path6-7"
       d="m 47.407605,159.03182 c 0.226323,-1.37747 0.621398,-2.72252 1.040252,-4.05203 0.476309,-1.37311 1.01282,-2.73087 1.724515,-3.9999 0.607962,-0.94123 1.313348,-1.86652 2.221043,-2.54323 0.230191,-0.17161 0.483206,-0.31027 0.724809,-0.46541 1.86684,-1.11915 3.928959,-1.80805 6.040705,-2.28573 2.417449,-0.43601 4.882935,-0.52275 7.333992,-0.54407 3.86221,-0.0321 7.692599,0.45785 11.494804,1.08458 4.292798,0.78043 8.550213,1.74299 12.77899,2.8144 4.035852,1.01141 8.083084,1.98393 12.144145,2.88933 4.28279,1.0587 8.51647,2.30458 12.70966,3.67307 3.78494,1.24394 7.63516,2.27114 11.51954,3.15086 4.2205,0.87659 8.44152,1.75432 12.67838,2.54893 4.31536,0.82548 8.67095,1.41005 13.0417,1.84296 0.5778,0.0181 1.15555,0.0705 1.7334,0.0542 1.0802,-0.0305 2.3384,-0.23054 3.39696,-0.43042 0.81918,-0.15468 2.28529,-0.48107 3.09518,-0.73924 0.46349,-0.14775 0.91053,-0.34283 1.36579,-0.51424 2.57334,-1.22117 4.6323,-3.22606 6.63694,-5.20316 1.06824,-1.05164 2.13806,-2.13338 3.41875,-2.93147 0.49344,-0.30749 0.87693,-0.46505 1.39784,-0.70429 1.10018,-0.52616 2.29617,-0.77449 3.44633,-1.16372 0.94525,-0.34346 1.80475,-0.8914 2.68231,-1.38006 0.51931,-0.27295 1.06877,-0.32074 1.64079,-0.27174 0.30855,0.0137 0.61738,0.0177 0.9261,0.0263 0,0 -15.0468,-10.88839 -15.0468,-10.88839 v 0 c -0.36516,0.0234 -0.73157,0.0422 -1.09218,0.10915 -0.69657,0.19971 -1.32579,0.54707 -1.93294,0.93953 -0.76693,0.44351 -1.49389,0.95309 -2.36909,1.16918 -1.20547,0.40961 -2.41887,0.83331 -3.46896,1.57439 -0.22767,0.15651 -0.46281,0.30266 -0.683,0.46953 -1.46886,1.11316 -2.65369,2.54156 -3.94432,3.84356 -1.81815,1.8428 -3.74301,3.62076 -6.18794,4.58969 -1.12162,0.40543 -1.35287,0.52395 -2.54102,0.80486 -2.06192,0.48749 -4.16576,0.57353 -6.27578,0.4449 -4.20544,-0.26788 -8.38845,-0.80621 -12.51315,-1.68226 -4.32165,-0.87951 -8.63022,-1.82797 -12.92725,-2.82045 -3.81637,-0.94012 -7.61176,-1.96472 -11.35136,-3.17879 -4.192524,-1.27731 -8.419089,-2.43936 -12.673236,-3.49412 -4.079589,-1.03599 -8.191128,-1.94248 -12.267478,-2.99298 -4.2132,-0.98581 -8.453627,-1.85758 -12.71591,-2.60426 -4.044253,-0.65648 -8.116289,-1.17958 -12.217796,-1.27387 -2.648929,-0.0196 -5.335921,-0.0212 -7.908567,0.69773 -2.237069,0.68112 -4.442242,1.48193 -6.472032,2.66172 -0.593402,0.37739 -1.179325,0.71611 -1.710563,1.18188 -0.781778,0.68544 -1.329813,1.60599 -1.878569,2.47311 -0.233334,0.41512 -0.558095,0.97416 -0.759485,1.40699 -0.441056,0.94793 -0.735764,1.95682 -1.06185,2.94702 -0.424735,1.26001 -0.808272,2.56158 -1.520735,3.69496 z" />
  </g>
</svg>
